<?xml version="1.0" encoding="UTF-8" standalone="no"?>
<!DOCTYPE svg PUBLIC "-//W3C//DTD SVG 1.1//EN"
 "http://www.w3.org/Graphics/SVG/1.1/DTD/svg11.dtd">
<!-- Generated by graphviz version 2.42.4 (0)
 -->
<!-- Title: FSM Pages: 1 -->
<svg width="394pt" height="340pt"
 viewBox="0.00 0.00 394.34 340.18" xmlns="http://www.w3.org/2000/svg" xmlns:xlink="http://www.w3.org/1999/xlink">
<g id="graph0" class="graph" transform="scale(1 1) rotate(0) translate(4 336.18)">
<title>FSM</title>
<polygon fill="white" stroke="transparent" points="-4,4 -4,-336.18 390.34,-336.18 390.34,4 -4,4"/>
<!-- Idle -->
<g id="node1" class="node">
<title>Idle</title>
<ellipse fill="none" stroke="black" cx="180.14" cy="-226.58" rx="28.68" ry="28.68"/>
<ellipse fill="none" stroke="black" cx="180.14" cy="-226.58" rx="32.7" ry="32.7"/>
<text text-anchor="middle" x="180.14" y="-222.88" font-family="Times,serif" font-size="14.00">Idle</text>
</g>
<!-- MovingUp -->
<g id="node2" class="node">
<title>MovingUp</title>
<ellipse fill="none" stroke="black" cx="59.14" cy="-71.49" rx="59.29" ry="59.29"/>
<text text-anchor="middle" x="59.14" y="-67.79" font-family="Times,serif" font-size="14.00">MovingUp</text>
</g>
<!-- Idle&#45;&gt;MovingUp -->
<g id="edge2" class="edge">
<title>Idle&#45;&gt;MovingUp</title>
<path fill="none" stroke="black" d="M147.71,-221.99C119.32,-216.94 79.65,-204.84 60.14,-175.99 53,-165.41 49.74,-152.74 48.77,-139.95"/>
<polygon fill="black" stroke="black" points="52.26,-139.59 48.44,-129.71 45.26,-139.81 52.26,-139.59"/>
<text text-anchor="middle" x="80.64" y="-164.79" font-family="Times,serif" font-size="14.00">GoUp</text>
</g>
<!-- MovingDown -->
<g id="node3" class="node">
<title>MovingDown</title>
<ellipse fill="none" stroke="black" cx="208.14" cy="-71.49" rx="71.49" ry="71.49"/>
<text text-anchor="middle" x="208.14" y="-67.79" font-family="Times,serif" font-size="14.00">MovingDown</text>
</g>
<!-- Idle&#45;&gt;MovingDown -->
<g id="edge4" class="edge">
<title>Idle&#45;&gt;MovingDown</title>
<path fill="none" stroke="black" d="M178.87,-193.89C178.92,-183.37 179.47,-171.62 181.14,-160.99 181.73,-157.28 182.43,-153.51 183.22,-149.72"/>
<polygon fill="black" stroke="black" points="186.7,-150.21 185.52,-139.68 179.88,-148.65 186.7,-150.21"/>
<text text-anchor="middle" x="211.64" y="-164.79" font-family="Times,serif" font-size="14.00">GoDown</text>
</g>
<!-- PickUp -->
<g id="node5" class="node">
<title>PickUp</title>
<ellipse fill="none" stroke="black" cx="342.14" cy="-71.49" rx="44.39" ry="18"/>
<text text-anchor="middle" x="342.14" y="-67.79" font-family="Times,serif" font-size="14.00">PickUp</text>
</g>
<!-- Idle&#45;&gt;PickUp -->
<g id="edge6" class="edge">
<title>Idle&#45;&gt;PickUp</title>
<path fill="none" stroke="black" stroke-dasharray="1,5" d="M211.65,-216.5C234.26,-208.71 264.28,-195.59 285.14,-175.99 307.93,-154.57 323.79,-121.96 332.9,-99.09"/>
<polygon fill="black" stroke="black" points="336.21,-100.23 336.49,-89.64 329.66,-97.74 336.21,-100.23"/>
</g>
<!-- MovingUp&#45;&gt;Idle -->
<g id="edge3" class="edge">
<title>MovingUp&#45;&gt;Idle</title>
<path fill="none" stroke="black" d="M95.54,-118.55C114.34,-142.32 136.84,-170.79 153.91,-192.39"/>
<polygon fill="black" stroke="black" points="151.22,-194.63 160.16,-200.3 156.71,-190.29 151.22,-194.63"/>
<text text-anchor="middle" x="155.14" y="-164.79" font-family="Times,serif" font-size="14.00">Stop</text>
</g>
<!-- MovingDown&#45;&gt;Idle -->
<g id="edge5" class="edge">
<title>MovingDown&#45;&gt;Idle</title>
<path fill="none" stroke="black" d="M243.87,-133.73C247.88,-147.89 248.54,-162.69 242.14,-175.99 236.64,-187.44 227.06,-197.08 217.05,-204.72"/>
<polygon fill="black" stroke="black" points="214.78,-202.04 208.63,-210.67 218.82,-207.76 214.78,-202.04"/>
<text text-anchor="middle" x="264.14" y="-164.79" font-family="Times,serif" font-size="14.00">Stop</text>
</g>
<!-- start -->
<g id="node4" class="node">
<title>start</title>
<ellipse fill="none" stroke="black" cx="180.14" cy="-314.18" rx="33.29" ry="18"/>
<text text-anchor="middle" x="180.14" y="-310.48" font-family="Times,serif" font-size="14.00">start</text>
</g>
<!-- start&#45;&gt;Idle -->
<g id="edge1" class="edge">
<title>start&#45;&gt;Idle</title>
<path fill="none" stroke="black" d="M180.14,-295.86C180.14,-288.18 180.14,-278.79 180.14,-269.45"/>
<polygon fill="black" stroke="black" points="183.64,-269.42 180.14,-259.42 176.64,-269.42 183.64,-269.42"/>
</g>
</g>
</svg>
