<?xml version="1.0" encoding="UTF-8" standalone="no"?>
<!DOCTYPE svg PUBLIC "-//W3C//DTD SVG 1.1//EN"
 "http://www.w3.org/Graphics/SVG/1.1/DTD/svg11.dtd">
<!-- Generated by graphviz version 2.42.4 (0)
 -->
<!-- Title: FSM Pages: 1 -->
<svg width="288pt" height="413pt"
 viewBox="0.00 0.00 287.64 413.18" xmlns="http://www.w3.org/2000/svg" xmlns:xlink="http://www.w3.org/1999/xlink">
<g id="graph0" class="graph" transform="scale(1 1) rotate(0) translate(4 409.18)">
<title>FSM</title>
<polygon fill="white" stroke="transparent" points="-4,4 -4,-409.18 283.64,-409.18 283.64,4 -4,4"/>
<!-- Idle -->
<g id="node1" class="node">
<title>Idle</title>
<ellipse fill="none" stroke="black" cx="123.14" cy="-299.58" rx="28.68" ry="28.68"/>
<ellipse fill="none" stroke="black" cx="123.14" cy="-299.58" rx="32.7" ry="32.7"/>
<text text-anchor="middle" x="123.14" y="-295.88" font-family="Times,serif" font-size="14.00">Idle</text>
</g>
<!-- Idle&#45;&gt;Idle -->
<g id="edge6" class="edge">
<title>Idle&#45;&gt;Idle</title>
<path fill="none" stroke="black" d="M154.77,-308.96C165.31,-308.96 173.74,-305.83 173.74,-299.58 173.74,-295.58 170.28,-292.86 165.02,-291.42"/>
<polygon fill="black" stroke="black" points="165.11,-287.91 154.77,-290.21 164.29,-294.86 165.11,-287.91"/>
<text text-anchor="middle" x="199.74" y="-295.88" font-family="Times,serif" font-size="14.00">PickUp</text>
</g>
<!-- MovingUp -->
<g id="node2" class="node">
<title>MovingUp</title>
<ellipse fill="none" stroke="black" cx="59.14" cy="-144.49" rx="59.29" ry="59.29"/>
<text text-anchor="middle" x="59.14" y="-140.79" font-family="Times,serif" font-size="14.00">MovingUp</text>
</g>
<!-- Idle&#45;&gt;MovingUp -->
<g id="edge2" class="edge">
<title>Idle&#45;&gt;MovingUp</title>
<path fill="none" stroke="black" d="M91.5,-290.45C70.65,-283.27 44.91,-270.49 32.14,-248.99 24.48,-236.08 24.35,-221 27.76,-206.42"/>
<polygon fill="black" stroke="black" points="31.23,-207 30.63,-196.43 24.5,-205.07 31.23,-207"/>
<text text-anchor="middle" x="52.64" y="-237.79" font-family="Times,serif" font-size="14.00">GoUp</text>
</g>
<!-- MovingDown -->
<g id="node3" class="node">
<title>MovingDown</title>
<ellipse fill="none" stroke="black" cx="208.14" cy="-144.49" rx="71.49" ry="71.49"/>
<text text-anchor="middle" x="208.14" y="-140.79" font-family="Times,serif" font-size="14.00">MovingDown</text>
</g>
<!-- Idle&#45;&gt;MovingDown -->
<g id="edge4" class="edge">
<title>Idle&#45;&gt;MovingDown</title>
<path fill="none" stroke="black" d="M135.85,-269.27C140.93,-258.08 147.03,-245.3 153.14,-233.99 156.77,-227.27 160.7,-220.37 164.73,-213.52"/>
<polygon fill="black" stroke="black" points="167.75,-215.27 169.87,-204.89 161.74,-211.69 167.75,-215.27"/>
<text text-anchor="middle" x="183.64" y="-237.79" font-family="Times,serif" font-size="14.00">GoDown</text>
</g>
<!-- MovingUp&#45;&gt;Idle -->
<g id="edge3" class="edge">
<title>MovingUp&#45;&gt;Idle</title>
<path fill="none" stroke="black" d="M77.17,-200.91C82.77,-216.64 89.28,-233.66 96.14,-248.99 98.02,-253.18 100.11,-257.49 102.28,-261.75"/>
<polygon fill="black" stroke="black" points="99.34,-263.68 107.09,-270.9 105.54,-260.42 99.34,-263.68"/>
<text text-anchor="middle" x="113.14" y="-237.79" font-family="Times,serif" font-size="14.00">Stop</text>
</g>
<!-- PickUp -->
<g id="node5" class="node">
<title>PickUp</title>
<ellipse fill="none" stroke="black" cx="133.14" cy="-18" rx="44.39" ry="18"/>
<text text-anchor="middle" x="133.14" y="-14.3" font-family="Times,serif" font-size="14.00">PickUp</text>
</g>
<!-- MovingUp&#45;&gt;PickUp -->
<g id="edge7" class="edge">
<title>MovingUp&#45;&gt;PickUp</title>
<path fill="none" stroke="black" stroke-dasharray="1,5" d="M89.03,-93.22C99.03,-76.39 109.76,-58.35 118.13,-44.26"/>
<polygon fill="black" stroke="black" points="121.15,-46.02 123.26,-35.64 115.14,-42.44 121.15,-46.02"/>
</g>
<!-- MovingDown&#45;&gt;Idle -->
<g id="edge5" class="edge">
<title>MovingDown&#45;&gt;Idle</title>
<path fill="none" stroke="black" d="M223.19,-214.48C222.83,-226.59 220.3,-238.62 214.14,-248.99 203.27,-267.3 183,-279.28 164.34,-286.87"/>
<polygon fill="black" stroke="black" points="162.93,-283.66 154.79,-290.45 165.38,-290.22 162.93,-283.66"/>
<text text-anchor="middle" x="237.14" y="-237.79" font-family="Times,serif" font-size="14.00">Stop</text>
</g>
<!-- MovingDown&#45;&gt;PickUp -->
<g id="edge8" class="edge">
<title>MovingDown&#45;&gt;PickUp</title>
<path fill="none" stroke="black" stroke-dasharray="1,5" d="M171.52,-82.71C163.39,-69.2 155.2,-55.61 148.49,-44.47"/>
<polygon fill="black" stroke="black" points="151.39,-42.5 143.23,-35.74 145.39,-46.11 151.39,-42.5"/>
</g>
<!-- start -->
<g id="node4" class="node">
<title>start</title>
<ellipse fill="none" stroke="black" cx="123.14" cy="-387.18" rx="33.29" ry="18"/>
<text text-anchor="middle" x="123.14" y="-383.48" font-family="Times,serif" font-size="14.00">start</text>
</g>
<!-- start&#45;&gt;Idle -->
<g id="edge1" class="edge">
<title>start&#45;&gt;Idle</title>
<path fill="none" stroke="black" d="M123.14,-368.86C123.14,-361.18 123.14,-351.79 123.14,-342.45"/>
<polygon fill="black" stroke="black" points="126.64,-342.42 123.14,-332.42 119.64,-342.42 126.64,-342.42"/>
</g>
</g>
</svg>
